<?xml version="1.0" standalone="no"?>
<!DOCTYPE svg PUBLIC "-//W3C//DTD SVG 20010904//EN"
 "http://www.w3.org/TR/2001/REC-SVG-20010904/DTD/svg10.dtd">
<svg version="1.0" xmlns="http://www.w3.org/2000/svg"
 width="500.000000pt" height="500.000000pt" viewBox="0 0 500.000000 500.000000"
 preserveAspectRatio="xMidYMid meet">

<g transform="translate(0.000000,500.000000) scale(0.100000,-0.100000)"
fill="#000000" stroke="none">
<path d="M1358 4367 l-1137 -632 2 -1229 2 -1229 1137 -639 1136 -638 1136
637 1136 638 0 1231 0 1231 -1131 629 c-622 346 -1134 630 -1138 631 -3 1
-518 -282 -1143 -630z m1229 357 c46 -26 81 -50 76 -54 -11 -10 -1000 -580
-1019 -587 -13 -5 -14 10 -12 102 l3 108 425 238 c234 130 429 238 433 238 5
1 47 -20 94 -45z m372 -207 c41 -23 74 -45 75 -49 1 -4 -314 -190 -699 -412
l-700 -405 -3 97 c-1 53 1 98 5 100 4 1 283 162 618 356 336 195 615 355 620
355 6 0 43 -19 84 -42z m390 -218 c51 -29 88 -55 84 -59 -6 -5 -1724 -997
-1796 -1037 -4 -3 -6 45 -5 106 l3 111 800 465 c440 255 805 464 811 464 6 1
52 -22 103 -50z m-1919 -1134 c0 -553 -3 -1005 -7 -1005 -5 0 -53 26 -108 58
l-100 57 -3 891 -2 891 102 56 c57 31 106 57 111 57 4 0 7 -452 7 -1005z
m2695 703 l455 -253 0 -99 c0 -74 -3 -97 -12 -93 -49 19 -1083 599 -1083 607
0 16 148 100 167 96 10 -2 222 -118 473 -258z m-3115 -704 l0 -776 -32 20
c-18 11 -63 36 -100 57 l-68 37 0 666 0 667 93 52 c50 28 95 52 100 52 4 1 7
-348 7 -775z m2926 380 l644 -358 0 -104 0 -104 -32 19 c-18 10 -354 196 -746
413 -459 254 -709 397 -702 404 25 25 157 95 173 92 10 -3 308 -165 663 -362z
m-3330 -921 c-2 -2 -45 19 -95 47 l-91 51 0 448 0 448 93 51 92 52 3 -547 c1
-300 0 -548 -2 -550z m3125 599 l844 -467 3 -114 c2 -89 0 -112 -10 -108 -23
8 -1863 1028 -1872 1037 -7 7 166 119 185 120 4 0 386 -210 850 -468z m-792
-17 l431 -240 -3 -463 -2 -464 -434 -244 -435 -244 -438 246 -438 246 2 461 3
461 435 243 c239 133 438 242 441 240 4 -1 200 -110 438 -242z m740 -411 l101
-55 -2 -896 -3 -897 -45 -26 c-25 -14 -71 -41 -102 -59 l-58 -32 0 1010 c0
556 2 1011 4 1011 1 0 49 -25 105 -56z m501 -949 l0 -673 -100 -55 -100 -55 0
783 0 783 100 -55 100 -55 0 -673z m-3529 518 c123 -69 539 -304 924 -520 385
-217 703 -398 708 -402 4 -4 -35 -31 -88 -60 l-95 -53 -840 474 -840 473 0
108 c0 59 2 107 4 107 2 0 104 -57 227 -127z m3834 -15 l95 -52 0 -450 0 -451
-93 -50 c-50 -27 -95 -51 -99 -53 -5 -2 -8 246 -8 552 0 306 2 556 5 556 3 0
48 -23 100 -52z m-3305 -728 c382 -215 699 -395 703 -399 9 -9 -16 -26 -123
-83 l-65 -35 -635 357 -635 358 -3 116 -3 116 33 -19 c18 -11 346 -196 728
-411z m2190 82 l0 -107 -817 -460 c-449 -253 -822 -461 -830 -463 -12 -3 -193
94 -193 103 0 4 52 34 1025 580 380 213 717 402 750 421 33 19 61 34 63 34 1
0 2 -48 2 -108z m-2419 -407 c288 -163 527 -299 531 -303 5 -5 -30 -29 -77
-55 l-84 -47 -451 252 -450 252 0 98 c0 54 2 98 4 98 2 0 239 -133 527 -295z
m2417 -47 l-3 -113 -600 -337 c-330 -185 -610 -342 -621 -349 -19 -10 -35 -4
-118 42 -52 30 -94 58 -93 62 2 8 1416 805 1430 806 4 1 6 -50 5 -111z m-10
-533 c-14 -13 -852 -485 -861 -485 -9 0 -158 87 -160 94 -1 3 230 136 513 295
l515 289 3 -91 c2 -64 -1 -94 -10 -102z"/>
</g>
</svg>
